# This file uses centimeters as units for non-parametric coordinates.

mtllib AFuckingCrowbar.mtl
g default
v -0.192036 -0.026550 0.018740
v 0.188845 0.039629 0.018740
v -0.192036 -0.023305 0.018740
v 0.172926 0.041474 0.018740
v -0.192036 -0.023305 -0.018740
v 0.172926 0.041474 -0.018740
v -0.192036 -0.026550 -0.018740
v 0.188845 0.039629 -0.018740
v -0.133750 -0.009429 0.018740
v -0.133750 -0.009429 -0.018740
v -0.133750 0.009429 -0.018740
v -0.133750 0.009429 0.018740
v 0.181169 0.023148 0.018740
v 0.164074 0.031110 0.018740
v 0.164074 0.031110 -0.018740
v 0.181169 0.023148 -0.018740
v 0.162298 0.003207 0.018740
v 0.162298 0.003207 -0.018740
v 0.150508 0.017926 -0.018740
v 0.150508 0.017926 0.018740
v 0.129038 -0.009429 0.018740
v 0.129038 -0.009429 -0.018740
v 0.129038 0.009429 -0.018740
v 0.129038 0.009429 0.018740
v -0.192036 -0.023305 0.000758
v -0.133750 0.009429 0.000758
v 0.129038 0.009429 0.000758
v 0.150508 0.017926 0.000758
v 0.164074 0.031110 0.000758
v 0.172926 0.041474 0.000758
v 0.188845 0.039629 0.000758
v 0.181169 0.023148 0.000758
v 0.162298 0.003207 0.000758
v 0.129038 -0.009429 0.000758
v -0.133750 -0.009429 0.000758
v -0.192036 -0.026550 0.000758
v 0.170573 0.061095 0.000758
v 0.188845 0.059391 0.000758
v 0.188845 0.059391 -0.018740
v 0.170573 0.061095 -0.018740
v 0.188845 0.059391 0.018740
v 0.170573 0.061095 0.018740
v 0.165910 0.071504 0.000758
v 0.181942 0.081435 0.000758
v 0.181942 0.081435 -0.018740
v 0.165910 0.071504 -0.018740
v 0.181942 0.081435 0.018740
v 0.165910 0.071504 0.018740
v 0.162875 0.073684 0.000758
v 0.178907 0.083614 0.000758
v 0.152420 0.103929 -0.018740
v 0.136388 0.093998 -0.018740
v 0.152420 0.103929 0.018740
v 0.136388 0.093998 0.018740
vt 0.375000 0.000000
vt 0.625000 0.000000
vt 0.375000 0.250000
vt 0.625000 0.250000
vt 0.375000 0.500000
vt 0.625000 0.500000
vt 0.375000 0.750000
vt 0.625000 0.750000
vt 0.375000 1.000000
vt 0.625000 1.000000
vt 0.875000 0.000000
vt 0.875000 0.250000
vt 0.125000 0.000000
vt 0.125000 0.250000
vt 0.412940 0.000000
vt 0.412940 1.000000
vt 0.412940 0.750000
vt 0.412940 0.500000
vt 0.412940 0.250000
vt 0.613166 0.000000
vt 0.613166 1.000000
vt 0.613166 0.250000
vt 0.613166 0.500000
vt 0.613166 0.750000
vt 0.598946 0.000000
vt 0.598946 1.000000
vt 0.598946 0.750000
vt 0.598946 0.500000
vt 0.598946 0.250000
vt 0.583993 0.000000
vt 0.583993 1.000000
vt 0.583993 0.750000
vt 0.583993 0.500000
vt 0.583993 0.250000
vt 0.255058 0.250000
vt 0.375000 0.369942
vt 0.412940 0.369942
vt 0.583993 0.369942
vt 0.598946 0.369942
vt 0.613166 0.369942
vt 0.625000 0.369942
vt 0.744942 0.250000
vt 0.625000 0.880058
vt 0.744942 0.000000
vt 0.613166 0.880058
vt 0.598946 0.880058
vt 0.583993 0.880058
vt 0.412940 0.880058
vt 0.255058 0.000000
vt 0.375000 0.880058
vt 0.744942 0.000000
vt 0.875000 0.000000
vt 0.875000 0.250000
vt 0.744942 0.250000
vt 0.625000 0.000000
vt 0.625000 0.250000
vt 0.744942 0.000000
vt 0.875000 0.000000
vt 0.875000 0.250000
vt 0.744942 0.250000
vt 0.625000 0.000000
vt 0.625000 0.250000
vt 0.744942 0.000000
vt 0.875000 0.000000
vt 0.875000 0.250000
vt 0.744942 0.250000
vt 0.625000 0.000000
vt 0.625000 0.250000
vn 0.000000 0.000000 1.000000
vn 0.000000 0.000000 1.000000
vn -0.000000 0.000000 1.000000
vn -0.000000 0.000000 1.000000
vn -0.526212 0.850354 0.000000
vn -0.526212 0.850354 0.000000
vn -0.724272 0.689515 0.000000
vn -0.724272 0.689515 0.000000
vn 0.000000 0.000000 -1.000000
vn 0.000000 0.000000 -1.000000
vn 0.000000 0.000000 -1.000000
vn 0.000000 0.000000 -1.000000
vn 0.808117 -0.589022 0.000000
vn 0.529943 -0.848033 0.000000
vn 0.529943 -0.848033 0.000000
vn 0.808117 -0.589022 0.000000
vn -0.526551 0.850139 -0.002782
vn -0.526549 0.850135 0.004171
vn -0.278946 0.450370 0.848149
vn -0.278946 0.450370 0.848149
vn -1.000000 0.000000 0.000000
vn -1.000000 0.000000 0.000000
vn -1.000000 0.000000 0.000000
vn -1.000000 0.000000 0.000000
vn 0.281821 -0.959467 0.000000
vn 0.053246 -0.998581 0.000000
vn 0.053246 -0.998581 0.000000
vn 0.281821 -0.959467 0.000000
vn -0.000000 0.000000 -1.000000
vn -0.000000 0.000000 -1.000000
vn -0.000000 0.000000 -1.000000
vn -0.000000 0.000000 -1.000000
vn -0.489668 0.871909 0.000000
vn -0.101426 0.994843 -0.000000
vn -0.101426 0.994843 -0.000000
vn -0.489668 0.871909 0.000000
vn -0.000000 0.000000 1.000000
vn -0.000000 0.000000 1.000000
vn -0.000000 0.000000 1.000000
vn -0.000000 0.000000 1.000000
vn -0.000000 0.000000 1.000000
vn -0.000000 0.000000 1.000000
vn -0.760396 0.649460 0.000000
vn -0.760396 0.649460 0.000000
vn 0.000000 0.000000 -1.000000
vn 0.000000 0.000000 -1.000000
vn 0.906505 -0.422196 0.000000
vn 0.906505 -0.422196 0.000000
vn 0.042646 -0.999090 0.000000
vn 0.042646 -0.999090 0.000000
vn -0.000000 0.000000 -1.000000
vn -0.000000 0.000000 -1.000000
vn -0.029878 0.999554 -0.000000
vn -0.029878 0.999554 -0.000000
vn 0.000000 0.000000 1.000000
vn 0.000000 0.000000 1.000000
vn -0.489668 0.871909 0.000000
vn -0.101426 0.994843 0.000000
vn -0.029878 0.999554 0.000000
vn -0.526212 0.850354 0.000000
vn -0.724272 0.689515 0.000000
vn -0.760396 0.649460 0.000000
vn -0.262823 0.424338 -0.866522
vn -0.262823 0.424338 -0.866522
vn 0.808117 -0.589022 0.000000
vn 0.906505 -0.422196 0.000000
vn 0.529943 -0.848033 0.000000
vn 0.042646 -0.999090 0.000000
vn 0.053246 -0.998581 0.000000
vn 0.281821 -0.959467 0.000000
vn -1.000000 0.000000 0.000000
vn -1.000000 0.000000 0.000000
vn 1.000000 0.000000 0.000000
vn 1.000000 0.000000 0.000000
vn 1.000000 0.000000 0.000000
vn 1.000000 0.000000 0.000000
vn 0.000000 0.000000 -1.000000
vn 0.000000 0.000000 -1.000000
vn 0.000000 0.000000 -1.000000
vn 0.000000 0.000000 -1.000000
vn -0.992892 -0.119023 0.000000
vn -0.992892 -0.119023 0.000000
vn -0.992892 -0.119023 0.000000
vn -0.992892 -0.119023 0.000000
vn 1.000000 0.000000 0.000000
vn 1.000000 0.000000 0.000000
vn 1.000000 0.000000 0.000000
vn 1.000000 0.000000 0.000000
vn -0.992892 -0.119023 0.000000
vn -0.992892 -0.119023 0.000000
vn -0.992892 -0.119023 0.000000
vn -0.992892 -0.119023 0.000000
vn 0.000000 0.000000 1.000000
vn 0.000000 0.000000 1.000000
vn 0.000000 0.000000 1.000000
vn 0.000000 0.000000 1.000000
vn 0.954307 0.298827 0.000000
vn 0.954307 0.298827 0.000000
vn 0.954307 0.298827 0.000000
vn 0.954307 0.298827 0.000000
vn -0.000000 0.000000 -1.000000
vn -0.000000 0.000000 -1.000000
vn -0.000000 0.000000 -1.000000
vn -0.000000 0.000000 -1.000000
vn -0.912590 -0.408877 0.000000
vn -0.912590 -0.408877 0.000000
vn -0.912590 -0.408877 0.000000
vn -0.912590 -0.408877 0.000000
vn 0.954307 0.298828 0.000000
vn 0.954307 0.298828 0.000000
vn 0.954307 0.298828 0.000000
vn 0.954307 0.298828 0.000000
vn -0.912590 -0.408876 0.000000
vn -0.912590 -0.408876 0.000000
vn -0.912590 -0.408876 0.000000
vn -0.912590 -0.408876 0.000000
vn -0.000000 0.000000 1.000000
vn -0.000000 0.000000 1.000000
vn -0.000000 0.000000 1.000000
vn -0.000000 0.000000 1.000000
vn 0.603997 0.796971 0.004915
vn 0.603997 0.796971 0.004915
vn 0.603997 0.796971 0.004915
vn 0.603997 0.796971 0.004915
vn 0.000000 0.000000 -1.000000
vn 0.000000 0.000000 -1.000000
vn 0.000000 0.000000 -1.000000
vn 0.000000 0.000000 -1.000000
vn -0.603997 -0.796972 -0.004916
vn -0.603997 -0.796972 -0.004916
vn -0.603997 -0.796972 -0.004916
vn -0.603997 -0.796972 -0.004916
vn 0.603996 0.796970 -0.005329
vn 0.603996 0.796970 -0.005329
vn 0.603996 0.796970 -0.005329
vn 0.603996 0.796970 -0.005329
vn -0.603995 -0.796970 0.005330
vn -0.603995 -0.796970 0.005330
vn -0.603995 -0.796970 0.005330
vn -0.603995 -0.796970 0.005330
vn 0.000000 0.000000 1.000000
vn 0.000000 0.000000 1.000000
vn 0.000000 0.000000 1.000000
vn 0.000000 0.000000 1.000000
s 1
g pCube160
usemtl initialShadingGroup
f 20/29/1 17/25/2 13/20/3 14/22/4
s 2
f 19/28/5 28/39/6 29/40/7 15/23/8
s 3
f 18/27/9 19/28/10 15/23/11 16/24/12
s 4
f 32/45/13 33/46/14 18/27/15 16/24/16
s 5
f 49/66/17 50/63/18 51/64/19 52/65/20
s 6
f 7/13/21 36/49/22 25/35/23 5/14/24
s 4
f 7/7/25 10/17/26 35/48/27 36/50/28
s 3
f 5/5/29 11/18/30 10/17/31 7/7/32
s 2
f 25/36/33 26/37/34 11/18/35 5/5/36
s 1
f 1/1/37 9/15/38 12/19/39 3/3/40
f 14/22/4 13/20/3 2/2/41 4/4/42
s 2
f 15/23/8 29/40/7 30/41/43 6/6/44
s 3
f 16/24/12 15/23/11 6/6/45 8/8/46
s 4
f 31/43/47 32/45/13 16/24/16 8/8/48
f 33/46/14 34/47/49 22/32/50 18/27/15
s 3
f 22/32/51 23/33/52 19/28/10 18/27/9
s 2
f 23/33/53 27/38/54 28/39/6 19/28/5
s 1
f 24/34/55 21/30/56 17/25/2 20/29/1
s 4
f 34/47/49 35/48/27 10/17/26 22/32/50
s 3
f 10/17/31 11/18/30 23/33/52 22/32/51
s 2
f 11/18/35 26/37/34 27/38/54 23/33/53
s 1
f 12/19/39 9/15/38 21/30/56 24/34/55
s 2
f 3/3/57 12/19/58 26/37/34 25/36/33
f 27/38/54 26/37/34 12/19/58 24/34/59
f 28/39/6 27/38/54 24/34/59 20/29/60
f 29/40/7 28/39/6 20/29/60 14/22/61
f 30/41/43 29/40/7 14/22/61 4/4/62
s 5
f 53/67/63 50/63/18 49/66/17 54/68/64
s 4
f 13/21/65 32/45/13 31/43/47 2/10/66
f 17/26/67 33/46/14 32/45/13 13/21/65
f 21/31/68 34/47/49 33/46/14 17/26/67
f 9/16/69 35/48/27 34/47/49 21/31/68
f 36/50/28 35/48/27 9/16/69 1/9/70
s 6
f 25/35/23 36/49/22 1/1/71 3/3/72
s off
f 31/44/73 8/11/74 39/52/75 38/51/76
f 8/11/77 6/12/78 40/53/79 39/52/80
f 6/12/81 30/42/82 37/54/83 40/53/84
f 2/2/85 31/44/86 38/51/87 41/55/88
f 30/42/89 4/4/90 42/56/91 37/54/92
f 4/4/93 2/2/94 41/55/95 42/56/96
f 38/51/97 39/52/98 45/58/99 44/57/100
f 39/52/101 40/53/102 46/59/103 45/58/104
f 40/53/105 37/54/106 43/60/107 46/59/108
f 41/55/109 38/51/110 44/57/111 47/61/112
f 37/54/113 42/56/114 48/62/115 43/60/116
f 42/56/117 41/55/118 47/61/119 48/62/120
f 44/57/121 45/58/122 51/64/123 50/63/124
f 45/58/125 46/59/126 52/65/127 51/64/128
f 46/59/129 43/60/130 49/66/131 52/65/132
f 47/61/133 44/57/134 50/63/135 53/67/136
f 43/60/137 48/62/138 54/68/139 49/66/140
f 48/62/141 47/61/142 53/67/143 54/68/144
