# This file uses centimeters as units for non-parametric coordinates.

mtllib Numpadlock.mtl
g default
v -2.991427 -0.239847 0.125751
v -2.944622 -0.239847 0.125751
v -2.991427 0.143671 0.125751
v -2.944622 0.143671 0.125751
v -2.991427 0.143671 -0.125751
v -2.944622 0.143671 -0.125751
v -2.991427 -0.239847 -0.125751
v -2.944622 -0.239847 -0.125751
v -3.009570 -0.205597 0.030742
v -2.961800 -0.205597 0.030742
v -3.009570 -0.148912 0.030742
v -2.961800 -0.148912 0.030742
v -3.009570 -0.148912 -0.025942
v -2.961800 -0.148912 -0.025942
v -3.009570 -0.205597 -0.025942
v -2.961800 -0.205597 -0.025942
v -3.009570 -0.205597 0.100588
v -2.961800 -0.205597 0.100588
v -3.009570 -0.148912 0.100588
v -2.961800 -0.148912 0.100588
v -3.009570 -0.148912 0.043903
v -2.961800 -0.148912 0.043903
v -3.009570 -0.205597 0.043903
v -2.961800 -0.205597 0.043903
v -3.009570 -0.133112 -0.043289
v -2.961800 -0.133112 -0.043289
v -3.009570 -0.076427 -0.043289
v -2.961800 -0.076427 -0.043289
v -3.009570 -0.076427 -0.099974
v -2.961800 -0.076427 -0.099974
v -3.009570 -0.133112 -0.099974
v -2.961800 -0.133112 -0.099974
v -3.009570 -0.133112 0.030742
v -2.961800 -0.133112 0.030742
v -3.009570 -0.076427 0.030742
v -2.961800 -0.076427 0.030742
v -3.009570 -0.076427 -0.025942
v -2.961800 -0.076427 -0.025942
v -3.009570 -0.133112 -0.025942
v -2.961800 -0.133112 -0.025942
v -3.009570 -0.064336 0.100588
v -2.961800 -0.064336 0.100588
v -3.009570 -0.007651 0.100588
v -2.961800 -0.007651 0.100588
v -3.009570 -0.007651 0.043903
v -2.961800 -0.007651 0.043903
v -3.009570 -0.064336 0.043903
v -2.961800 -0.064336 0.043903
v -3.009570 -0.064336 0.030742
v -2.961800 -0.064336 0.030742
v -3.009570 -0.007651 0.030742
v -2.961800 -0.007651 0.030742
v -3.009570 -0.007651 -0.025942
v -2.961800 -0.007651 -0.025942
v -3.009570 -0.064336 -0.025942
v -2.961800 -0.064336 -0.025942
v -3.009570 -0.205597 -0.043289
v -2.961800 -0.205597 -0.043289
v -3.009570 -0.148912 -0.043289
v -2.961800 -0.148912 -0.043289
v -3.009570 -0.148912 -0.099974
v -2.961800 -0.148912 -0.099974
v -3.009570 -0.205597 -0.099974
v -2.961800 -0.205597 -0.099974
v -3.009570 -0.133112 0.100588
v -2.961800 -0.133112 0.100588
v -3.009570 -0.076427 0.100588
v -2.961800 -0.076427 0.100588
v -3.009570 -0.076427 0.043903
v -2.961800 -0.076427 0.043903
v -3.009570 -0.133112 0.043903
v -2.961800 -0.133112 0.043903
v -3.007794 0.038608 0.103895
v -2.973888 0.038608 0.103895
v -3.007794 0.114287 0.103895
v -2.973888 0.114287 0.103895
v -3.007794 0.114287 -0.103895
v -2.973888 0.114287 -0.103895
v -3.007794 0.038608 -0.103895
v -2.973888 0.038608 -0.103895
v -3.007794 0.100192 0.103895
v -2.973888 0.100192 0.103895
v -2.973888 0.100192 -0.103895
v -3.007794 0.100192 -0.103895
v -3.007794 0.114287 -0.090281
v -2.973888 0.114287 -0.090281
v -2.973888 0.100192 -0.090281
v -2.973888 0.038608 -0.090281
v -3.007794 0.038608 -0.090281
v -3.007794 0.100192 -0.090281
v -3.007794 0.114287 0.092436
v -2.973888 0.114287 0.092436
v -2.973888 0.100192 0.092436
v -2.973888 0.038608 0.092436
v -3.007794 0.038608 0.092436
v -3.007794 0.100192 0.092436
v -3.007794 0.048374 0.103895
v -2.973888 0.048374 0.103895
v -2.973888 0.048374 0.092436
v -2.973888 0.048374 -0.090281
v -2.973888 0.048374 -0.103895
v -3.007794 0.048374 -0.103895
v -3.007794 0.048374 -0.090281
v -3.007794 0.048374 0.092436
v -2.996281 0.048374 -0.090281
v -2.996281 0.100192 -0.090281
v -2.996281 0.048374 0.092436
v -2.996281 0.100192 0.092436
v -3.009570 -0.064336 -0.043289
v -2.961800 -0.064336 -0.043289
v -3.009570 -0.007651 -0.043289
v -2.961800 -0.007651 -0.043289
v -3.009570 -0.007651 -0.099974
v -2.961800 -0.007651 -0.099974
v -3.009570 -0.064336 -0.099974
v -2.961800 -0.064336 -0.099974
vt 0.125818 0.001992
vt 0.426467 0.001992
vt 0.426467 0.460454
vt 0.125818 0.460454
vt 0.433633 0.001992
vt 0.734282 0.001992
vt 0.734282 0.460454
vt 0.433633 0.460454
vt 0.104775 0.531838
vt 0.104775 0.464077
vt 0.172537 0.464077
vt 0.172537 0.531838
vt 0.031445 0.464077
vt 0.099206 0.464077
vt 0.099206 0.531838
vt 0.031445 0.531838
vt 0.256728 0.535461
vt 0.324489 0.535461
vt 0.324489 0.603223
vt 0.256728 0.603223
vt 0.331028 0.535461
vt 0.398789 0.535461
vt 0.398789 0.603223
vt 0.331028 0.603223
vt 0.660071 0.783855
vt 0.660071 0.716093
vt 0.727832 0.716093
vt 0.727832 0.783855
vt 0.734371 0.783855
vt 0.734371 0.716093
vt 0.802132 0.716093
vt 0.802132 0.783855
vt 0.650104 0.855239
vt 0.650104 0.787478
vt 0.717865 0.787478
vt 0.717865 0.855239
vt 0.576773 0.787478
vt 0.644535 0.787478
vt 0.644535 0.855239
vt 0.576773 0.855239
vt 0.252751 0.606846
vt 0.320513 0.606846
vt 0.320513 0.674607
vt 0.252751 0.674607
vt 0.179421 0.606846
vt 0.247182 0.606846
vt 0.247182 0.674607
vt 0.179421 0.674607
vt 0.129356 0.745992
vt 0.129356 0.678230
vt 0.197118 0.678230
vt 0.197118 0.745992
vt 0.203656 0.678230
vt 0.271418 0.678230
vt 0.271418 0.745992
vt 0.203656 0.745992
vt 0.532699 0.926623
vt 0.532699 0.858862
vt 0.600461 0.858862
vt 0.600461 0.926623
vt 0.606999 0.926623
vt 0.606999 0.858862
vt 0.674761 0.858862
vt 0.674761 0.926623
vt 0.775449 0.930247
vt 0.843211 0.930247
vt 0.843211 0.998008
vt 0.775449 0.998008
vt 0.702119 0.930247
vt 0.769880 0.930247
vt 0.769880 0.998008
vt 0.702119 0.998008
vt 0.813680 0.480351
vt 0.796831 0.480351
vt 0.796831 0.464077
vt 0.813680 0.464077
vt 0.813680 0.698772
vt 0.796831 0.698772
vt 0.734888 0.480351
vt 0.734888 0.464077
vt 0.796831 0.712470
vt 0.813680 0.712470
vt 0.734888 0.698772
vt 0.723213 0.480351
vt 0.723213 0.464077
vt 0.734888 0.712470
vt 0.723213 0.698772
vt 0.723213 0.712470
vt 0.700795 0.712470
vt 0.700795 0.696196
vt 0.717644 0.696196
vt 0.717644 0.712470
vt 0.638851 0.712470
vt 0.638851 0.696196
vt 0.700795 0.477775
vt 0.717644 0.477775
vt 0.627177 0.712470
vt 0.627177 0.696196
vt 0.700795 0.464077
vt 0.717644 0.464077
vt 0.638851 0.477775
vt 0.627177 0.477775
vt 0.638851 0.464077
vt 0.627177 0.464077
vt 0.621608 0.682498
vt 0.559664 0.682498
vt 0.559664 0.464077
vt 0.621608 0.464077
vt 0.378097 0.968036
vt 0.378097 0.900275
vt 0.445859 0.900275
vt 0.445859 0.968036
vt 0.304767 0.840082
vt 0.304767 0.772320
vt 0.372528 0.772320
vt 0.372528 0.840082
vt 0.741447 0.001992
vt 0.797399 0.001992
vt 0.797399 0.302641
vt 0.741447 0.302641
vt 0.803364 0.001992
vt 0.859315 0.001992
vt 0.859315 0.302641
vt 0.803364 0.302641
vt 0.303451 0.464077
vt 0.360555 0.464077
vt 0.360555 0.531838
vt 0.303451 0.531838
vt 0.178106 0.464077
vt 0.235209 0.464077
vt 0.235209 0.531838
vt 0.178106 0.531838
vt 0.065671 0.535461
vt 0.122775 0.535461
vt 0.122775 0.603223
vt 0.065671 0.603223
vt 0.193042 0.535461
vt 0.250146 0.535461
vt 0.250146 0.603223
vt 0.193042 0.603223
vt 0.469014 0.686121
vt 0.526118 0.686121
vt 0.526118 0.753883
vt 0.469014 0.753883
vt 0.596385 0.716093
vt 0.653489 0.716093
vt 0.653489 0.783855
vt 0.596385 0.783855
vt 0.848780 0.787478
vt 0.905883 0.787478
vt 0.905883 0.855239
vt 0.848780 0.855239
vt 0.723434 0.787478
vt 0.780538 0.787478
vt 0.780538 0.855239
vt 0.723434 0.855239
vt 0.451428 0.757506
vt 0.508531 0.757506
vt 0.508531 0.825267
vt 0.451428 0.825267
vt 0.326082 0.606846
vt 0.383186 0.606846
vt 0.383186 0.674607
vt 0.326082 0.674607
vt 0.054075 0.606846
vt 0.111179 0.606846
vt 0.111179 0.674607
vt 0.054075 0.674607
vt 0.065671 0.678230
vt 0.122775 0.678230
vt 0.122775 0.745992
vt 0.065671 0.745992
vt 0.341642 0.700936
vt 0.398746 0.700936
vt 0.398746 0.768697
vt 0.341642 0.768697
vt 0.469014 0.828890
vt 0.526118 0.828890
vt 0.526118 0.896652
vt 0.469014 0.896652
vt 0.744985 0.858862
vt 0.802089 0.858862
vt 0.802089 0.926624
vt 0.744985 0.926624
vt 0.848780 0.930246
vt 0.905883 0.930246
vt 0.905883 0.998008
vt 0.848780 0.998008
vt 0.865351 0.234112
vt 0.905883 0.234112
vt 0.905883 0.250385
vt 0.865351 0.250385
vt 0.865351 0.015690
vt 0.905883 0.015690
vt 0.865351 0.001992
vt 0.905883 0.001992
vt 0.819249 0.306264
vt 0.859782 0.306264
vt 0.859782 0.322538
vt 0.819249 0.322538
vt 0.859782 0.540959
vt 0.819249 0.540959
vt 0.859782 0.554657
vt 0.819249 0.554657
vt 0.540332 0.682498
vt 0.540332 0.464077
vt 0.554095 0.464077
vt 0.554095 0.682498
vt 0.521000 0.682498
vt 0.521000 0.464077
vt 0.534763 0.464077
vt 0.534763 0.682498
vt 0.576773 0.930247
vt 0.633877 0.930247
vt 0.633877 0.998008
vt 0.576773 0.998008
vt 0.451428 0.900275
vt 0.508531 0.900275
vt 0.508531 0.968036
vt 0.451428 0.968036
vt 0.001808 0.001992
vt 0.057760 0.001992
vt 0.057760 0.460454
vt 0.001808 0.460454
vt 0.063902 0.001992
vt 0.119853 0.001992
vt 0.119853 0.460454
vt 0.063902 0.460454
vt 0.366124 0.464077
vt 0.423228 0.464077
vt 0.423228 0.531838
vt 0.366124 0.531838
vt 0.240778 0.464077
vt 0.297882 0.464077
vt 0.297882 0.531838
vt 0.240778 0.531838
vt 0.001808 0.535461
vt 0.058912 0.535461
vt 0.058912 0.603223
vt 0.001808 0.603223
vt 0.129356 0.535461
vt 0.186460 0.535461
vt 0.186460 0.603223
vt 0.129356 0.603223
vt 0.405328 0.558167
vt 0.462432 0.558167
vt 0.462432 0.625928
vt 0.405328 0.625928
vt 0.532699 0.686121
vt 0.589803 0.686121
vt 0.589803 0.753883
vt 0.532699 0.753883
vt 0.808671 0.716093
vt 0.865775 0.716093
vt 0.865775 0.783855
vt 0.808671 0.783855
vt 0.786107 0.787478
vt 0.843211 0.787478
vt 0.843211 0.855239
vt 0.786107 0.855239
vt 0.514100 0.757506
vt 0.571204 0.757506
vt 0.571204 0.825267
vt 0.514100 0.825267
vt 0.388755 0.629551
vt 0.445859 0.629551
vt 0.445859 0.697313
vt 0.388755 0.697313
vt 0.116748 0.606846
vt 0.173852 0.606846
vt 0.173852 0.674607
vt 0.116748 0.674607
vt 0.001808 0.678230
vt 0.058912 0.678230
vt 0.058912 0.745992
vt 0.001808 0.745992
vt 0.277956 0.678230
vt 0.335060 0.678230
vt 0.335060 0.745992
vt 0.277956 0.745992
vt 0.405328 0.828890
vt 0.462432 0.828890
vt 0.462432 0.896652
vt 0.405328 0.896652
vt 0.681299 0.858862
vt 0.738403 0.858862
vt 0.738403 0.926624
vt 0.681299 0.926624
vt 0.808671 0.858862
vt 0.865775 0.858862
vt 0.865775 0.926623
vt 0.808671 0.926623
vt 0.474899 0.537695
vt 0.515431 0.537695
vt 0.515431 0.554544
vt 0.474899 0.554544
vt 0.474899 0.475751
vt 0.515431 0.475751
vt 0.474899 0.464077
vt 0.515431 0.464077
vt 0.428797 0.464077
vt 0.469330 0.464077
vt 0.469330 0.480925
vt 0.428797 0.480925
vt 0.469330 0.542869
vt 0.428797 0.542869
vt 0.469330 0.554544
vt 0.428797 0.554544
vt 0.285435 0.811558
vt 0.285435 0.749615
vt 0.299198 0.749615
vt 0.299198 0.811558
vt 0.266103 0.811559
vt 0.266103 0.749615
vt 0.279866 0.749615
vt 0.279866 0.811559
vt 0.639446 0.930247
vt 0.696550 0.930247
vt 0.696550 0.998008
vt 0.639446 0.998008
vt 0.514100 0.930246
vt 0.571204 0.930246
vt 0.571204 0.998008
vt 0.514100 0.998008
vn 0.000000 0.000000 1.000000
vn 0.000000 0.000000 1.000000
vn 0.000000 0.000000 1.000000
vn 0.000000 0.000000 1.000000
vn 0.000000 1.000000 0.000000
vn 0.000000 1.000000 0.000000
vn 0.000000 1.000000 0.000000
vn 0.000000 1.000000 0.000000
vn 0.000000 0.000000 -1.000000
vn 0.000000 0.000000 -1.000000
vn 0.000000 0.000000 -1.000000
vn 0.000000 0.000000 -1.000000
vn 0.000000 -1.000000 0.000000
vn 0.000000 -1.000000 0.000000
vn 0.000000 -1.000000 0.000000
vn 0.000000 -1.000000 0.000000
vn 1.000000 0.000000 0.000000
vn 1.000000 0.000000 0.000000
vn 1.000000 0.000000 0.000000
vn 1.000000 0.000000 0.000000
vn -1.000000 0.000000 0.000000
vn -1.000000 0.000000 0.000000
vn -1.000000 0.000000 0.000000
vn -1.000000 0.000000 0.000000
vn 0.000000 0.000000 1.000000
vn 0.000000 0.000000 1.000000
vn 0.000000 0.000000 1.000000
vn 0.000000 0.000000 1.000000
vn 0.000000 1.000000 0.000000
vn 0.000000 1.000000 0.000000
vn 0.000000 1.000000 0.000000
vn 0.000000 1.000000 0.000000
vn 0.000000 0.000000 -1.000000
vn 0.000000 0.000000 -1.000000
vn 0.000000 0.000000 -1.000000
vn 0.000000 0.000000 -1.000000
vn 0.000000 -1.000000 0.000000
vn 0.000000 -1.000000 0.000000
vn 0.000000 -1.000000 0.000000
vn 0.000000 -1.000000 0.000000
vn 1.000000 0.000000 0.000000
vn 1.000000 0.000000 0.000000
vn 1.000000 0.000000 0.000000
vn 1.000000 0.000000 0.000000
vn -1.000000 0.000000 0.000000
vn -1.000000 0.000000 0.000000
vn -1.000000 0.000000 0.000000
vn -1.000000 0.000000 0.000000
vn 0.000000 0.000000 1.000000
vn 0.000000 0.000000 1.000000
vn 0.000000 0.000000 1.000000
vn 0.000000 0.000000 1.000000
vn 0.000000 1.000000 0.000000
vn 0.000000 1.000000 0.000000
vn 0.000000 1.000000 0.000000
vn 0.000000 1.000000 0.000000
vn 0.000000 0.000000 -1.000000
vn 0.000000 0.000000 -1.000000
vn 0.000000 0.000000 -1.000000
vn 0.000000 0.000000 -1.000000
vn 0.000000 -1.000000 0.000000
vn 0.000000 -1.000000 0.000000
vn 0.000000 -1.000000 0.000000
vn 0.000000 -1.000000 0.000000
vn 1.000000 0.000000 0.000000
vn 1.000000 0.000000 0.000000
vn 1.000000 0.000000 0.000000
vn 1.000000 0.000000 0.000000
vn -1.000000 0.000000 0.000000
vn -1.000000 0.000000 0.000000
vn -1.000000 0.000000 0.000000
vn -1.000000 0.000000 0.000000
vn 0.000000 0.000000 1.000000
vn 0.000000 0.000000 1.000000
vn 0.000000 0.000000 1.000000
vn 0.000000 0.000000 1.000000
vn 0.000000 1.000000 0.000000
vn 0.000000 1.000000 0.000000
vn 0.000000 1.000000 0.000000
vn 0.000000 1.000000 0.000000
vn 0.000000 0.000000 -1.000000
vn 0.000000 0.000000 -1.000000
vn 0.000000 0.000000 -1.000000
vn 0.000000 0.000000 -1.000000
vn 0.000000 -1.000000 0.000000
vn 0.000000 -1.000000 0.000000
vn 0.000000 -1.000000 0.000000
vn 0.000000 -1.000000 0.000000
vn 1.000000 0.000000 0.000000
vn 1.000000 0.000000 0.000000
vn 1.000000 0.000000 0.000000
vn 1.000000 0.000000 0.000000
vn -1.000000 0.000000 0.000000
vn -1.000000 0.000000 0.000000
vn -1.000000 0.000000 0.000000
vn -1.000000 0.000000 0.000000
vn 0.000000 0.000000 1.000000
vn 0.000000 0.000000 1.000000
vn 0.000000 0.000000 1.000000
vn 0.000000 0.000000 1.000000
vn 0.000000 1.000000 0.000000
vn 0.000000 1.000000 0.000000
vn 0.000000 1.000000 0.000000
vn 0.000000 1.000000 0.000000
vn 0.000000 0.000000 -1.000000
vn 0.000000 0.000000 -1.000000
vn 0.000000 0.000000 -1.000000
vn 0.000000 0.000000 -1.000000
vn 0.000000 -1.000000 0.000000
vn 0.000000 -1.000000 0.000000
vn 0.000000 -1.000000 0.000000
vn 0.000000 -1.000000 0.000000
vn 1.000000 0.000000 0.000000
vn 1.000000 0.000000 0.000000
vn 1.000000 0.000000 0.000000
vn 1.000000 0.000000 0.000000
vn -1.000000 0.000000 0.000000
vn -1.000000 0.000000 0.000000
vn -1.000000 0.000000 0.000000
vn -1.000000 0.000000 0.000000
vn 0.000000 0.000000 1.000000
vn 0.000000 0.000000 1.000000
vn 0.000000 0.000000 1.000000
vn 0.000000 0.000000 1.000000
vn 0.000000 1.000000 0.000000
vn 0.000000 1.000000 0.000000
vn 0.000000 1.000000 0.000000
vn 0.000000 1.000000 0.000000
vn 0.000000 0.000000 -1.000000
vn 0.000000 0.000000 -1.000000
vn 0.000000 0.000000 -1.000000
vn 0.000000 0.000000 -1.000000
vn 0.000000 -1.000000 0.000000
vn 0.000000 -1.000000 0.000000
vn 0.000000 -1.000000 0.000000
vn 0.000000 -1.000000 0.000000
vn 1.000000 0.000000 0.000000
vn 1.000000 0.000000 0.000000
vn 1.000000 0.000000 0.000000
vn 1.000000 0.000000 0.000000
vn -1.000000 0.000000 0.000000
vn -1.000000 0.000000 0.000000
vn -1.000000 0.000000 0.000000
vn -1.000000 0.000000 0.000000
vn 0.000000 0.000000 1.000000
vn 0.000000 0.000000 1.000000
vn 0.000000 0.000000 1.000000
vn 0.000000 0.000000 1.000000
vn 0.000000 1.000000 0.000000
vn 0.000000 1.000000 0.000000
vn 0.000000 1.000000 0.000000
vn 0.000000 1.000000 0.000000
vn 0.000000 0.000000 -1.000000
vn 0.000000 0.000000 -1.000000
vn 0.000000 0.000000 -1.000000
vn 0.000000 0.000000 -1.000000
vn 0.000000 -1.000000 0.000000
vn 0.000000 -1.000000 0.000000
vn 0.000000 -1.000000 0.000000
vn 0.000000 -1.000000 0.000000
vn 1.000000 0.000000 0.000000
vn 1.000000 0.000000 0.000000
vn 1.000000 0.000000 0.000000
vn 1.000000 0.000000 0.000000
vn -1.000000 0.000000 0.000000
vn -1.000000 0.000000 0.000000
vn -1.000000 0.000000 0.000000
vn -1.000000 0.000000 0.000000
vn 0.000000 0.000000 1.000000
vn 0.000000 0.000000 1.000000
vn 0.000000 0.000000 1.000000
vn 0.000000 0.000000 1.000000
vn 0.000000 1.000000 0.000000
vn 0.000000 1.000000 0.000000
vn 0.000000 1.000000 0.000000
vn 0.000000 1.000000 0.000000
vn 0.000000 0.000000 -1.000000
vn 0.000000 0.000000 -1.000000
vn 0.000000 0.000000 -1.000000
vn 0.000000 0.000000 -1.000000
vn 0.000000 -1.000000 0.000000
vn 0.000000 -1.000000 0.000000
vn 0.000000 -1.000000 0.000000
vn 0.000000 -1.000000 0.000000
vn 1.000000 0.000000 0.000000
vn 1.000000 0.000000 0.000000
vn 1.000000 0.000000 0.000000
vn 1.000000 0.000000 0.000000
vn -1.000000 0.000000 0.000000
vn -1.000000 0.000000 0.000000
vn -1.000000 0.000000 0.000000
vn -1.000000 0.000000 0.000000
vn 0.000000 0.000000 1.000000
vn 0.000000 0.000000 1.000000
vn 0.000000 0.000000 1.000000
vn 0.000000 0.000000 1.000000
vn 0.000000 1.000000 0.000000
vn 0.000000 1.000000 0.000000
vn 0.000000 1.000000 0.000000
vn 0.000000 1.000000 0.000000
vn 0.000000 0.000000 -1.000000
vn 0.000000 0.000000 -1.000000
vn 0.000000 0.000000 -1.000000
vn 0.000000 0.000000 -1.000000
vn 0.000000 -1.000000 0.000000
vn 0.000000 -1.000000 0.000000
vn 0.000000 -1.000000 0.000000
vn 0.000000 -1.000000 0.000000
vn 1.000000 0.000000 0.000000
vn 1.000000 0.000000 0.000000
vn 1.000000 0.000000 0.000000
vn 1.000000 0.000000 0.000000
vn -1.000000 0.000000 0.000000
vn -1.000000 0.000000 0.000000
vn -1.000000 0.000000 0.000000
vn -1.000000 0.000000 0.000000
vn 0.000000 0.000000 1.000000
vn 0.000000 0.000000 1.000000
vn 0.000000 0.000000 1.000000
vn 0.000000 0.000000 1.000000
vn 0.000000 1.000000 0.000000
vn 0.000000 1.000000 0.000000
vn 0.000000 1.000000 0.000000
vn 0.000000 1.000000 0.000000
vn 0.000000 0.000000 -1.000000
vn 0.000000 0.000000 -1.000000
vn 0.000000 0.000000 -1.000000
vn 0.000000 0.000000 -1.000000
vn 0.000000 -1.000000 0.000000
vn 0.000000 -1.000000 0.000000
vn 0.000000 -1.000000 0.000000
vn 0.000000 -1.000000 0.000000
vn 1.000000 0.000000 0.000000
vn 1.000000 0.000001 0.000000
vn 1.000000 0.000000 0.000000
vn 1.000000 0.000000 0.000000
vn -1.000000 0.000000 0.000000
vn -1.000000 0.000004 0.000000
vn -1.000000 0.000005 0.000000
vn -1.000000 0.000000 0.000000
vn 0.000000 0.000000 1.000000
vn 0.000000 0.000000 1.000000
vn 1.000000 0.000001 0.000000
vn 1.000000 0.000000 0.000000
vn 0.000000 0.000000 -1.000000
vn 0.000000 0.000000 -1.000000
vn -1.000000 0.000000 0.000000
vn -1.000000 0.000002 0.000000
vn 0.000000 1.000000 0.000000
vn 0.000000 1.000000 0.000000
vn 1.000000 0.000000 0.000000
vn 1.000000 0.000001 0.000000
vn 1.000000 0.000001 0.000000
vn 0.000000 -1.000000 0.000000
vn 0.000000 -1.000000 0.000000
vn -1.000000 0.000000 0.000000
vn -1.000000 0.000000 0.000000
vn -1.000000 0.000000 0.000000
vn -1.000000 0.000000 0.000000
vn -1.000000 0.000004 0.000000
vn -1.000000 0.000006 0.000000
vn 0.000000 1.000000 0.000000
vn 0.000000 1.000000 0.000000
vn 1.000000 0.000000 0.000000
vn 1.000000 0.000000 0.000000
vn 1.000000 0.000000 0.000000
vn 0.000000 -1.000000 0.000000
vn 0.000000 -1.000000 0.000000
vn -1.000000 0.000002 0.000000
vn -1.000000 0.000000 0.000000
vn -1.000000 -0.000001 0.000000
vn -1.000000 0.000000 0.000000
vn 0.000000 0.000000 1.000000
vn 0.000000 0.000000 1.000000
vn 1.000000 0.000000 0.000000
vn 1.000000 -0.000003 0.000000
vn 1.000000 -0.000003 0.000000
vn 1.000000 0.000000 0.000000
vn 0.000000 0.000000 -1.000000
vn 0.000000 0.000000 -1.000000
vn -1.000000 0.000000 0.000000
vn -1.000000 0.000003 0.000000
vn -1.000000 0.000004 0.000000
vn -1.000000 0.000008 0.000000
vn 0.000000 -0.000000 1.000000
vn 0.000000 -0.000000 1.000000
vn 0.000000 -0.000000 1.000000
vn 0.000000 -0.000000 1.000000
vn 0.000000 1.000000 0.000000
vn 0.000000 1.000000 0.000000
vn 0.000000 1.000000 0.000000
vn 0.000000 1.000000 0.000000
vn 0.000000 -0.000000 -1.000000
vn 0.000000 -0.000000 -1.000000
vn 0.000000 -0.000000 -1.000000
vn 0.000000 -0.000000 -1.000000
vn 0.000000 -1.000000 0.000000
vn 0.000000 -1.000000 0.000000
vn 0.000000 -1.000000 0.000000
vn 0.000000 -1.000000 0.000000
vn 0.000000 0.000000 1.000000
vn 0.000000 0.000000 1.000000
vn 0.000000 0.000000 1.000000
vn 0.000000 0.000000 1.000000
vn 0.000000 1.000000 0.000000
vn 0.000000 1.000000 0.000000
vn 0.000000 1.000000 0.000000
vn 0.000000 1.000000 0.000000
vn 0.000000 0.000000 -1.000000
vn 0.000000 0.000000 -1.000000
vn 0.000000 0.000000 -1.000000
vn 0.000000 0.000000 -1.000000
vn 0.000000 -1.000000 0.000000
vn 0.000000 -1.000000 0.000000
vn 0.000000 -1.000000 0.000000
vn 0.000000 -1.000000 0.000000
vn 1.000000 0.000000 0.000000
vn 1.000000 0.000000 0.000000
vn 1.000000 0.000000 0.000000
vn 1.000000 0.000000 0.000000
vn -1.000000 0.000000 0.000000
vn -1.000000 0.000000 0.000000
vn -1.000000 0.000000 0.000000
vn -1.000000 0.000000 0.000000
s off
g pCube222
usemtl initialShadingGroup
f 1/221/1 2/222/2 4/223/3 3/224/4
f 3/117/5 4/118/6 6/119/7 5/120/8
f 5/225/9 6/226/10 8/227/11 7/228/12
f 7/121/13 8/122/14 2/123/15 1/124/16
f 2/1/17 8/2/18 6/3/19 4/4/20
f 7/5/21 1/6/22 3/7/23 5/8/24
f 9/229/25 10/230/26 12/231/27 11/232/28
f 11/125/29 12/126/30 14/127/31 13/128/32
f 13/233/33 14/234/34 16/235/35 15/236/36
f 15/129/37 16/130/38 10/131/39 9/132/40
f 10/9/41 16/10/42 14/11/43 12/12/44
f 15/13/45 9/14/46 11/15/47 13/16/48
f 17/237/49 18/238/50 20/239/51 19/240/52
f 19/133/53 20/134/54 22/135/55 21/136/56
f 21/241/57 22/242/58 24/243/59 23/244/60
f 23/137/61 24/138/62 18/139/63 17/140/64
f 18/17/65 24/18/66 22/19/67 20/20/68
f 23/21/69 17/22/70 19/23/71 21/24/72
f 25/245/73 26/246/74 28/247/75 27/248/76
f 27/141/77 28/142/78 30/143/79 29/144/80
f 29/249/81 30/250/82 32/251/83 31/252/84
f 31/145/85 32/146/86 26/147/87 25/148/88
f 26/25/89 32/26/90 30/27/91 28/28/92
f 31/29/93 25/30/94 27/31/95 29/32/96
f 33/253/97 34/254/98 36/255/99 35/256/100
f 35/149/101 36/150/102 38/151/103 37/152/104
f 37/257/105 38/258/106 40/259/107 39/260/108
f 39/153/109 40/154/110 34/155/111 33/156/112
f 34/33/113 40/34/114 38/35/115 36/36/116
f 39/37/117 33/38/118 35/39/119 37/40/120
f 41/261/121 42/262/122 44/263/123 43/264/124
f 43/157/125 44/158/126 46/159/127 45/160/128
f 45/265/129 46/266/130 48/267/131 47/268/132
f 47/161/133 48/162/134 42/163/135 41/164/136
f 42/41/137 48/42/138 46/43/139 44/44/140
f 47/45/141 41/46/142 43/47/143 45/48/144
f 49/269/145 50/270/146 52/271/147 51/272/148
f 51/165/149 52/166/150 54/167/151 53/168/152
f 53/273/153 54/274/154 56/275/155 55/276/156
f 55/169/157 56/170/158 50/171/159 49/172/160
f 50/49/161 56/50/162 54/51/163 52/52/164
f 55/53/165 49/54/166 51/55/167 53/56/168
f 57/277/169 58/278/170 60/279/171 59/280/172
f 59/173/173 60/174/174 62/175/175 61/176/176
f 61/281/177 62/282/178 64/283/179 63/284/180
f 63/177/181 64/178/182 58/179/183 57/180/184
f 58/57/185 64/58/186 62/59/187 60/60/188
f 63/61/189 57/62/190 59/63/191 61/64/192
f 65/285/193 66/286/194 68/287/195 67/288/196
f 67/181/197 68/182/198 70/183/199 69/184/200
f 69/289/201 70/290/202 72/291/203 71/292/204
f 71/185/205 72/186/206 66/187/207 65/188/208
f 66/65/209 72/66/210 70/67/211 68/68/212
f 71/69/213 65/70/214 67/71/215 69/72/216
s 1
f 81/293/217 82/294/218 76/295/219 75/296/220
s 2
f 85/189/221 86/190/222 78/191/223 77/192/224
s 3
f 77/301/225 78/302/226 83/303/227 84/304/228
s 4
f 79/197/229 80/198/230 88/199/231 89/200/232
s 5
f 86/73/233 87/74/234 83/75/235 78/76/236
s 6
f 84/89/237 90/90/238 85/91/239 77/92/240
s 1
f 97/297/241 98/298/242 82/294/218 81/293/217
s 5
f 87/74/234 100/79/243 101/80/244 83/75/235
s 3
f 84/304/228 83/303/227 101/305/245 102/306/246
s 6
f 102/93/247 103/94/248 90/90/238 84/89/237
s 2
f 91/193/249 92/194/250 86/190/222 85/189/221
s 5
f 92/77/251 93/78/252 87/74/234 86/73/233
f 93/78/252 99/83/253 100/79/243 87/74/234
s 4
f 89/200/232 88/199/231 94/201/254 95/202/255
s off
f 106/105/256 105/106/257 107/107/258 108/108/259
s 6
f 85/91/239 90/90/238 96/95/260 91/96/261
s 2
f 75/195/262 76/196/263 92/194/250 91/193/249
s 5
f 82/81/264 93/78/252 92/77/251 76/82/265
f 98/86/266 99/83/253 93/78/252 82/81/264
s 4
f 95/202/255 94/201/254 74/203/267 73/204/268
s 6
f 96/95/260 104/101/269 97/103/270 81/99/271
f 91/96/261 96/95/260 81/99/271 75/100/272
s 1
f 73/299/273 74/300/274 98/298/242 97/297/241
s 5
f 74/88/275 94/87/276 99/83/253 98/86/266
f 100/79/243 99/83/253 94/87/276 88/84/277
f 101/80/244 100/79/243 88/84/277 80/85/278
s 3
f 102/306/246 101/305/245 80/307/279 79/308/280
s 6
f 79/97/281 89/98/282 103/94/248 102/93/247
f 104/101/269 103/94/248 89/98/282 95/102/283
f 97/103/270 104/101/269 95/102/283 73/104/284
s off
f 90/309/285 103/310/286 105/311/287 106/312/288
f 103/205/289 104/206/290 107/207/291 105/208/292
f 104/313/293 96/314/294 108/315/295 107/316/296
f 96/209/297 90/210/298 106/211/299 108/212/300
f 109/317/301 110/318/302 112/319/303 111/320/304
f 111/213/305 112/214/306 114/215/307 113/216/308
f 113/321/309 114/322/310 116/323/311 115/324/312
f 115/217/313 116/218/314 110/219/315 109/220/316
f 110/109/317 116/110/318 114/111/319 112/112/320
f 115/113/321 109/114/322 111/115/323 113/116/324
